<?xml version="1.0" standalone="no"?><!DOCTYPE svg PUBLIC "-//W3C//DTD SVG 1.1//EN" "http://www.w3.org/Graphics/SVG/1.1/DTD/svg11.dtd"><svg t="1605180231080" class="icon" viewBox="0 0 1024 1024" version="1.1" xmlns="http://www.w3.org/2000/svg" p-id="1184" width="128" height="128" xmlns:xlink="http://www.w3.org/1999/xlink"><defs><style type="text/css"></style></defs><path d="M854.698667 493.568c0 196.608-155.989333 356.352-348.16 356.352s-348.16-159.402667-348.16-356.352S314.026667 137.216 506.538667 137.216s348.16 159.402667 348.16 356.352" fill="#D33833" p-id="1185"></path><path d="M172.373333 581.632S147.456 210.261333 489.472 199.68l-23.893333-39.936L279.893333 221.866667 226.986667 282.965333l-46.421334 88.746667-26.282666 103.424 7.850666 68.949333" fill="#EF3D3A" p-id="1186"></path><path d="M267.946667 250.88c-61.098667 62.464-98.986667 148.821333-98.986667 244.394667s37.888 181.930667 98.986667 244.394666 145.408 101.034667 238.592 101.034667 177.493333-38.570667 238.592-101.034667 98.986667-148.821333 98.986666-244.394666-37.888-181.930667-98.986666-244.394667-145.408-101.034667-238.592-101.034667-177.493333 38.229333-238.592 101.034667zM252.586667 754.688c-64.853333-66.56-105.130667-158.037333-105.130667-259.413333S187.733333 302.421333 252.586667 235.861333s154.624-107.52 253.952-107.52 189.098667 41.301333 253.952 107.52 105.130667 158.037333 105.130666 259.413334-40.277333 192.853333-105.130666 259.413333-154.624 107.52-253.952 107.52S317.44 820.906667 252.586667 754.688" fill="#231F20" p-id="1187"></path><path d="M653.312 495.616l-52.906667 7.850667-71.338666 7.850666-46.421334 1.365334-45.056-1.365334-34.474666-10.581333-30.378667-33.109333-23.893333-67.584-5.12-14.677334-31.744-10.581333-18.773334-30.378667L278.869333 300.373333 293.546667 262.144l34.474666-11.946667 27.989334 13.312 13.312 29.013334 16.042666-2.730667 5.12-6.485333-5.12-30.378667-1.365333-38.570667 7.850667-52.906666-0.341334-30.378667 24.234667-38.570667 42.325333-30.378666 74.069334-32.085334 82.261333 11.946667 71.338667 51.882667 33.109333 52.906666 21.162667 38.570667 5.12 95.573333-16.042667 82.261334-29.013333 73.045333-27.989334 38.570667" fill="#F0D6B7" p-id="1188"></path><path d="M607.914667 724.992l-189.781334 7.850667v31.744l16.042667 111.616-7.850667 9.216L293.546667 840.021333l-9.216-16.042666-13.312-149.845334-30.037334-90.112-6.485333-21.162666 106.154667-73.045334 33.109333-13.312 29.013333 35.84 25.258667 22.528 29.013333 9.216 13.312 4.096 16.042667 68.949334 11.946667 14.677333 30.378666-10.581333-21.162666 40.96 115.370666 54.272-15.018666 8.533333" fill="#335061" p-id="1189"></path><path d="M293.205333 262.144L327.68 250.197333l27.989333 13.312 13.312 29.013334 16.042667-2.730667 4.096-16.042667-7.850667-30.378666 7.850667-73.045334-6.485333-39.936 23.893333-27.989333 51.882667-40.96-14.677334-19.797333-72.362666 35.84-30.378667 23.893333-17.408 37.205333-26.282667 35.84-7.850666 42.325334 5.12 45.056" fill="#6D6B6D" p-id="1190"></path><path d="M347.818667 137.216s19.797333-49.152 99.669333-73.045333 4.096-17.408 4.096-17.408L365.226667 80.213333l-33.109334 33.109334L317.44 139.946667l30.378667-2.730667M308.224 252.586667s-27.989333-92.842667 78.165333-105.813334l-4.096-16.042666-73.045333 17.408-21.162667 68.949333L293.546667 262.144l14.677333-9.557333" fill="#DCD9D8" p-id="1191"></path><path d="M350.549333 376.149333l17.408-16.725333c0.341333 5.12 4.096 9.216 9.216 10.24 1.365333 9.216 5.12 92.842667 62.122667 137.898667 5.12 4.096-42.325333-6.485333-42.325333-6.485334l-42.325334-66.218666m239.616-84.309334s3.072-40.277333 13.994667-37.205333 10.922667 13.994667 10.922667 13.994667-26.282667 17.066667-24.917334 23.210666M704.853333 203.434667s-21.845333 4.778667-23.893333 23.893333c-2.048 19.114667 23.893333 4.096 27.989333 2.730667M544.426667 204.8s-29.013333 4.096-29.013334 22.528 33.109333 17.408 42.325334 9.216M363.861333 291.157333s-50.517333-30.378667-55.978666-1.365333-17.408 50.517333 7.850666 80.896l-17.408-5.12-16.042666-40.96-5.12-39.936 30.378666-31.744 34.474667 2.730667 19.797333 16.042666 2.048 19.456m23.552-83.626666s22.528-116.736 136.533334-139.605334c93.866667-18.432 143.36 4.096 161.792 25.258667 0 0-83.626667-99.328-163.157334-68.949333S384.682667 111.274667 385.706667 146.432l1.706666 61.098667m307.882667-100.693334s-38.570667-1.365333-39.936 33.109334c0 3.754667 1.024 7.168 2.730667 10.581333s30.378667-34.474667 49.152-16.042667m-180.224 19.456s-6.485333-52.906667-51.882667-22.186666c-29.013333 19.797333-26.282667 47.786667-21.162667 52.906666s3.754667 16.042667 7.850667 8.533334 2.730667-31.061333 17.408-37.888c14.336-6.485333 38.229333-13.994667 47.786667-1.365334" fill="#F7E4CD" p-id="1192"></path><path d="M402.432 512.682667l-124.586667 55.637333s51.882667 205.482667 25.258667 269.312l-18.773333-6.485333-1.365334-78.165334-34.474666-148.138666-14.677334-40.96 130.389334-87.722667 38.229333 36.522667m12.629333 113.664l17.749334 21.504v79.530666h-21.162667l-2.730667-62.122666c0-6.485333 2.730667-30.378667 2.730667-30.378667m3.754667 104.448l-59.733334 2.730667 17.408 11.946666 42.325334 6.485334" fill="#49728B" p-id="1193"></path><path d="M619.861333 726.357333l49.152-1.365333 11.946667 122.197333-50.517333 6.485334-10.581334-127.317334" fill="#335061" p-id="1194"></path><path d="M633.173333 726.357333l74.410667-4.096 30.378667-80.896c0-4.096 26.282667-111.616 26.282666-111.616L704.512 467.626667l-11.946667-10.581334-31.744 31.744v123.221334l-27.648 114.346666" fill="#335061" p-id="1195"></path><path d="M666.282667 717.141333l-46.421334 9.216 6.485334 37.205334c17.408 7.850667 46.421333-13.312 46.421333-13.312m-5.12-265.216l92.842667 68.949333 2.730666-31.744-70.314666-65.536-25.258667 28.330667" fill="#49728B" p-id="1196"></path><path d="M461.482667 987.818667l-27.306667-111.616-13.653333-82.261334-2.389334-61.098666 124.245334-6.485334h77.482666l-7.168 139.605334 11.946667 107.52-1.365333 19.797333-100.693334 7.850667-61.098666-13.312" fill="#FFFFFF" p-id="1197"></path><path d="M602.453333 724.992s-6.485333 137.898667 13.312 235.861333c0 0-39.936 25.258667-98.304 31.744l111.616-4.096 13.312-7.850666-16.042666-217.429334-4.096-46.421333" fill="#DCD9D8" p-id="1198"></path><path d="M683.008 836.266667l51.882667-14.677334 98.304-5.12 14.677333-45.056-26.282667-78.165333-30.378666-4.096-42.325334 13.312-40.618666 19.797333-21.504-4.096-16.725334 6.485334" fill="#FFFFFF" p-id="1199"></path><path d="M682.325333 809.984s34.474667-16.042667 39.936-14.677333l-14.677333-73.045334 17.408-6.485333 11.946667 76.8 80.896 4.096s16.042667-30.378667 11.946666-62.122667l14.677334 42.325334 1.365333 23.893333-21.162667 31.744-23.893333 5.12-39.936-1.365333-13.312-17.408-46.421333 6.485333-14.677334 5.12" fill="#DCD9D8" p-id="1200"></path><path d="M629.76 715.776l-29.013333-74.410667-30.378667-43.349333s6.485333-18.773333 16.042667-18.773333h30.378666l29.013334 10.581333-2.730667 49.152-13.312 76.8" fill="#FFFFFF" p-id="1201"></path><path d="M635.904 690.517333s-37.205333-71.338667-37.205333-82.261333c0 0 6.485333-16.042667 16.042666-11.946667s29.013333 14.677333 29.013334 14.677334v-25.258667l-45.056-9.216-30.378667 4.096 51.882667 122.197333 10.581333 1.365334" fill="#DCD9D8" p-id="1202"></path><path d="M473.088 515.413333l-36.864-4.096-34.474667-10.581333v11.946667l16.725334 18.773333 52.906666 23.893333" fill="#FFFFFF" p-id="1203"></path><path d="M414.378667 519.509333s40.96 17.408 54.272 13.312l1.365333 16.042667-37.205333-7.850667-22.528-16.042666 4.096-5.461334" fill="#DCD9D8" p-id="1204"></path><path d="M683.008 583.68c-22.528-0.682667-42.666667-3.413333-60.416-8.533333 1.365333-7.168-1.024-14.336 0.682667-19.797334 5.12-3.413333 13.312-3.413333 20.821333-4.437333-7.168-3.413333-15.36-4.437333-23.210667-2.730667-0.341333-5.12-2.389333-8.192-3.754666-12.288 12.629333-4.437333 42.666667-34.133333 59.392-24.234666 7.850667 4.778667 11.264 31.061333 11.946666 44.373333 0.682667 10.922667-1.024 21.845333-5.461333 27.648" fill="#D33833" p-id="1205"></path><path d="M575.488 546.816l-0.341333 5.12c-7.168 4.778667-18.432 4.437333-25.941334 8.533333 9.898667 0.341333 19.456 2.730667 27.989334 7.168l-0.341334 12.629334c-12.970667 8.874667-24.576 21.845333-39.936 30.378666-7.168 3.754667-32.426667 13.994667-39.936 12.288-4.437333-1.024-4.778667-6.144-6.485333-11.264-3.754667-10.922667-12.288-27.989333-12.970667-44.373333-1.024-20.48-3.072-54.954667 19.114667-50.858667 18.432 3.754667 35.84 10.24 52.565333 19.114667 8.533333 4.437333 13.312 10.24 26.282667 11.264" fill="#D33833" p-id="1206"></path><path d="M588.117333 571.392c-2.048-11.264-4.096-14.336-3.413333-24.234667 30.037333-20.138667 35.498667 34.133333 3.413333 24.234667" fill="#D33833" p-id="1207"></path><path d="M631.466667 580.266667s-9.216-13.312-2.730667-17.408 13.312 0 17.408-6.485334c4.096-6.485333 0-10.581333 1.365333-18.773333 1.365333-7.850667 7.850667-9.216 14.677334-10.581333s25.258667-4.096 27.989333 2.730666l-7.850667-23.893333-16.042666-5.12-50.517334 29.013333-2.730666 14.677334v29.013333m-121.173334 50.517333l-5.12-62.122666c-3.072-31.061333 7.509333-25.6 34.133334-25.6 4.096 0 24.917333 4.778667 26.624 7.850666 7.168 14.677333-12.288 11.605333 8.533333 22.528 17.408 9.557333 47.786667-5.802667 40.618667-26.624-3.754667-4.778667-20.138667-1.365333-26.282667-4.778666l-31.061333-16.042667c-13.312-6.826667-43.690667-16.725333-57.685334-7.168-35.498667 24.234667 2.389333 84.650667 15.018667 109.909333" fill="#EF3D3A" p-id="1208"></path><path d="M527.018667 153.941333c-36.181333-8.533333-54.272 15.018667-65.194667 39.594667-9.898667-2.389333-6.144-15.36-3.072-22.528 6.144-17.749333 32.426667-41.642667 53.930667-38.229333 9.216 1.706667 21.504 9.898667 14.336 21.162666m176.128 40.96h1.706666c8.192 17.066667 15.36 34.816 25.6 49.493334-6.826667 16.042667-52.224 30.378667-51.541333 1.365333 9.898667-4.437333 26.624-1.024 35.498667-6.144-5.12-13.653333-12.629333-25.258667-11.264-44.714667m-157.696 1.024c7.850667 14.336 10.24 29.013333 21.162666 39.936 5.12 4.778667 14.677333 10.581333 9.898667 24.234667-3.413333 5.12-8.192 9.216-13.994667 11.605333-17.066667 5.12-57.344 1.024-43.349333-20.48 14.336 0.682667 33.450667 9.216 44.032-1.024-8.192-12.970667-22.869333-38.912-17.408-54.272m151.210667 144.384c-25.941333 16.725333-54.613333 34.816-97.28 30.72-9.216-7.850667-12.629333-25.6-3.754667-37.205333 4.437333 7.850667 1.706667 22.528 14.677333 24.576 24.234667 4.096 52.224-14.677333 69.632-21.504 10.922667-18.090667-1.024-24.917333-10.581333-36.522667-19.797333-23.893333-46.421333-53.589333-45.397333-89.429333 7.850667-5.802667 8.533333 8.874667 9.898666 11.605333 10.24 24.234667 36.522667 55.296 55.296 76.117334 4.778667 5.12 12.288 9.898667 13.312 13.312 2.048 9.898667-6.826667 21.504-5.802666 28.330666m-342.357334-17.749333c-8.192-4.778667-9.898667-24.917333-19.456-25.6-13.653333-0.682667-11.264 26.282667-11.264 42.666667-9.557333-8.533333-10.922667-34.816-4.096-48.128-7.850667-3.754667-11.264 4.096-15.701333 7.168 5.461333-40.96 59.733333-18.773333 50.517333 23.893333m358.4 34.133333c-12.288 22.869333-29.013333 48.128-64.512 49.152-0.682667-7.509333-1.365333-18.773333 0-23.210666 26.965333-2.730667 43.690667-16.384 64.512-25.941334m-169.642666 15.018667c22.528 11.946667 64.170667 13.312 94.890666 12.288 1.706667 6.826667 1.706667 15.018667 1.706667 23.210667-39.594667 2.048-86.357333-7.509333-96.597333-35.498667m-4.096 22.186667c15.701333 39.253333 69.290667 34.816 114.688 33.792-2.048 5.12-6.485333 11.264-11.605334 13.312-14.677333 6.144-54.613333 10.24-74.752-0.341334-12.629333-6.826667-20.821333-22.186667-27.989333-31.061333-3.072-4.778667-20.138667-15.701333-0.341333-15.701333" fill="#231F20" p-id="1209"></path><path d="M694.954667 610.645333l-57.685334 91.477334c9.216-26.965333 12.970667-71.338667 14.336-105.813334 19.114667-8.874667 35.498667 2.048 43.349334 14.336" fill="#81B0C4" p-id="1210"></path><path d="M793.6 723.626667c-20.48 4.096-34.816 24.234667-54.954667 22.869333 10.922667-15.701333 30.037333-21.845333 54.954667-22.869333m8.874667 32.085333c-16.725333 1.706667-36.522667 4.437333-53.248 3.072 8.192-12.288 38.912-8.192 53.248-3.072m5.802666 27.648c-18.773333 0.341333-42.325333 0-60.074666-1.365333 10.581333-11.605333 48.128-4.437333 60.074666 1.365333" fill="#231F20" p-id="1211"></path><path d="M659.456 859.136c2.730667 23.552 12.288 47.445333 10.922667 73.386667-10.24 3.413333-16.384 6.485333-30.378667 6.144l-3.072-76.458667c6.826667 0.682667 17.066667-4.778667 22.528-3.072" fill="#DCD9D8" p-id="1212"></path><path d="M629.077333 510.976c-9.557333 6.144-17.408 13.994667-26.624 20.48-20.138667 1.024-31.061333-1.706667-45.738666-12.970667 0.341333-1.024 1.706667-0.682667 1.706666-1.706666 21.504 9.557333 48.810667-3.754667 70.656-5.802667" fill="#F0D6B7" p-id="1213"></path><path d="M516.096 657.749333c6.144-25.6 29.013333-38.912 50.176-52.906666 21.845333 27.989333 34.816 63.146667 49.493333 97.28-34.474667-10.24-69.632-27.306667-99.328-44.373334" fill="#81B0C4" p-id="1214"></path><path d="M636.928 862.549333c-1.024 20.821333 2.048 54.613333 3.072 76.458667 13.994667 0 19.797333-3.072 30.378667-6.144 1.024-25.941333-8.192-49.493333-10.922667-73.386667-5.461333-1.365333-15.701333 4.096-22.528 3.072z m-216.746667-119.125333c9.216 84.309333 22.528 155.306667 46.762667 230.4 54.272 16.384 119.466667 17.749333 167.253333 3.072-8.874667-42.325333-5.12-93.525333-10.24-138.581333l-7.168-102.4c-57.685333-12.629333-139.605333-3.413333-196.608 7.509333z m210.944-7.168c-0.341333 36.181333 1.706667 72.021333 4.437334 108.544l36.181333-6.485333c-4.096-34.816-3.754667-74.410667-12.288-105.130667-9.898667 0-18.773333-0.341333-28.330667 3.072z m70.656-5.802667c-6.485333-1.706667-14.336 0-20.48 0l12.288 93.184c9.898667 0.341333 15.36-4.437333 23.210667-5.802666 0.341333-27.306667-2.389333-64.853333-15.36-87.381334h0.341333z m106.837334 97.621334c20.821333-5.12 33.792-30.378667 27.989333-56.32-3.754667-17.408-10.922667-50.517333-18.090667-61.781334-5.461333-8.192-20.138667-19.114667-32.085333-11.605333-19.456 12.288-53.248 16.042667-67.242667 31.061333 7.168 23.552 9.216 55.637333 12.288 85.333334 24.234667 1.365333 53.589333-6.485333 73.728 2.048-13.994667 4.437333-32.085333 4.437333-44.373333 11.264 9.557333 4.437333 32.768 3.754667 47.786667 0z m-192.512-125.952c-14.677333-34.133333-27.989333-69.632-49.493334-97.28-21.162667 13.994667-44.373333 27.306667-50.176 52.906666 30.037333 17.066667 65.194667 34.133333 99.328 44.373334h0.341334z m35.84-106.154667c-1.365333 34.133333-5.12 79.189333-14.336 105.813333 21.845333-27.648 39.253333-60.074667 57.685333-91.477333-7.850667-12.288-24.234667-23.210667-43.349333-14.336z m-40.277334-14.336c-8.192-1.024-15.36 9.216-25.941333 5.12l-7.168 8.192c23.552 28.672 34.133333 68.949333 52.906667 102.4 9.898667-32.085333 8.533333-67.584 10.922666-102.741333-13.653333 1.024-21.162667-11.946667-30.72-12.970667z m-26.282666-34.474667c-1.024 9.898667 1.706667 12.970667 3.413333 24.234667 32.085333 9.898667 26.624-44.032-3.413333-24.234667z m-35.498667-11.605333c-16.384-8.874667-34.133333-15.36-52.565333-19.114667-22.186667-4.096-20.138667 30.378667-19.114667 50.858667 0.682667 16.384 9.216 33.450667 12.970667 44.373333 1.706667 5.12 2.048 10.24 6.485333 11.264 7.509333 1.706667 32.768-8.192 39.936-12.288 15.36-8.192 26.965333-21.845333 39.936-30.378666l0.341333-12.970667c-7.850667-3.754667-16.725333-6.485333-27.989333-7.168 7.850667-3.754667 19.114667-3.754667 25.941333-8.533333l0.341334-5.12c-12.970667-0.682667-17.749333-6.485333-26.282667-10.922667z m-132.437333-24.234667c-11.605333 11.605333 32.085333 27.648 46.08 28.330667 0-7.509333 4.096-14.336 3.413333-19.797333-16.725333-2.389333-38.229333-0.682667-49.493333-8.533334z m141.312 5.461334c0 1.024-1.706667 0.682667-1.706667 1.706666 14.677333 11.605333 25.6 13.994667 45.738667 12.970667l26.624-20.48c-21.504 2.048-49.152 15.36-70.656 5.802667z m130.048 39.594666c-0.682667-12.970667-4.096-39.594667-11.946667-44.373333-16.725333-9.898667-46.421333 19.797333-59.392 24.234667 1.365333 4.096 3.754667 7.168 3.754667 12.288 7.850667-1.706667 16.042667-0.682667 23.210666 2.730666-7.509333 0.682667-15.36 0.682667-20.821333 4.437334-1.706667 5.12 0.341333 12.288-0.682667 19.797333 17.749333 5.12 38.229333 7.850667 60.416 8.533333 4.096-6.144 6.144-17.066667 5.461334-27.648z m-290.816-33.450666c-3.754667-2.730667-27.989333-34.474667-31.061334-33.109334-44.032 17.408-85.333333 47.445333-122.197333 76.117334C279.893333 641.365333 294.229333 733.866667 296.618667 822.954667c40.277333 18.773333 75.776 46.08 130.389333 48.810666l-15.701333-126.976c-13.653333-5.802667-33.450667 0.341333-46.421334-1.706666 0-15.36 19.797333-6.826667 21.162667-17.066667 1.365333-7.850667-10.922667-8.533333-6.826667-20.821333 9.898667 3.754667 15.36 11.605333 25.941334 14.677333 9.898667-21.845333 0-59.392 1.365333-77.482667 0.341333-3.413333 1.706667-18.773333 9.216-16.042666 6.826667 2.389333-0.341333 40.277333 0.341333 57.344 0.682667 15.701333-1.706667 31.061333 4.437334 40.618666 52.906667-7.168 106.496-11.946667 163.84-13.312-12.288-5.461333-27.648-10.581333-44.032-19.797333-8.874667-5.12-36.864-15.36-39.253334-23.893333-4.096-13.312 10.581333-20.48 13.312-32.085334-26.624 14.677333-31.744-13.994667-38.229333-34.133333-5.802667-18.773333-9.216-32.085333-10.24-42.666667-22.869333-10.922667-47.445333-21.845333-67.242667-36.181333l-0.682666 0.682667z m267.264-29.354667c36.864-17.749333 43.349333 66.56 29.013333 93.866667 2.389333 8.192 9.898667 11.264 12.970667 18.432L643.072 713.386667c15.701333-9.557333 37.888-1.706667 55.978667-9.216 6.826667-2.730667 11.605333-18.090667 16.725333-30.378667 13.994667-33.792 28.672-76.458667 35.157333-108.544 1.365333-7.509333 5.461333-23.210667 4.437334-30.037333-1.706667-11.605333-17.408-20.48-25.6-27.989334l-39.253334-37.546666c-6.144 9.216-19.797333 15.36-24.917333 23.210666l-0.341333 0.682667zM313.685333 167.253333c-17.408 19.456-13.994667 55.296-11.605333 81.237334 31.744-19.797333 73.728 1.706667 73.386667 35.498666 15.018667-0.341333 5.802667-18.773333 3.072-30.72-8.874667-38.912 15.018667-81.237333 1.024-116.736-27.648 1.706667-49.834667 12.970667-65.877334 30.72z m125.269334-111.957333C399.36 66.56 348.501333 95.573333 332.117333 131.072c12.629333-1.706667 21.845333-8.192 34.133334-9.216 4.778667-0.341333 10.922667 2.048 16.384 0.682667 10.922667-2.730667 19.797333-26.965333 27.989333-35.84 7.850667-8.874667 17.408-12.629333 23.893333-20.48 4.096-2.048 10.24-1.706667 10.581334-8.192-1.706667-2.048-3.754667-3.072-6.144-3.072v0.341333z m206.506666 10.581333c-41.301333-23.210667-110.933333-40.277333-154.624-18.773333-35.498667 17.749333-83.285333 46.762667-99.328 83.626667 15.36 35.84-4.778667 68.266667-5.802666 104.448-0.682667 19.114667 9.216 36.181333 9.898666 57.002666-5.12 8.533333-21.162667 9.216-32.085333 9.216-3.754667-18.432-10.24-39.253333-29.354667-41.642666-26.965333-3.072-46.762667 19.456-48.128 42.666666-1.365333 27.648 21.162667 73.045333 53.248 69.973334 12.288-1.365333 15.36-13.653333 29.013334-13.653334 7.168 14.677333-11.264 19.114667-13.312 29.696-0.341333 2.730667 1.706667 13.312 2.730666 18.090667 5.802667 23.893333 18.773333 54.954667 31.402667 73.386667 16.042667 23.210667 48.128 26.624 82.261333 29.013333 6.144-13.312 28.672-12.288 43.349334-8.533333-17.408-6.826667-33.792-23.893333-47.445334-38.912-15.36-17.066667-31.061333-35.84-32.085333-58.026667 29.354667 40.618667 53.589333 76.458667 107.178667 94.208 40.277333 13.653333 87.722667-6.144 118.784-27.989333 12.970667-9.216 20.48-23.552 29.696-36.522667 34.133333-49.493333 50.176-119.808 46.762666-188.074667-1.365333-27.989333-1.706667-55.978667-10.922666-75.093333-9.898667-19.797333-43.349333-37.205333-62.805334-19.456-3.754667-19.114667 16.384-31.061333 39.594667-24.234667-16.384-21.162667-34.133333-47.104-58.026667-60.416z m76.8 635.221334c32.085333-16.042667 92.16-43.008 112.64 0 8.533333 19.114667 15.018667 38.912 20.138667 59.050666 5.461333 23.210667-6.144 71.68-29.696 79.530667-21.162667 6.826667-45.397333 6.485333-70.997333 1.365333-3.413333-3.072-6.485333-7.168-8.533334-11.264-18.090667-0.682667-35.157333 1.024-49.152 8.533334 1.365333 13.312-7.850667 15.36-16.042666 18.773333-6.144 24.917333 12.288 57.344 8.192 80.213333-3.072 16.042667-23.210667 18.773333-37.888 21.845334-0.341333 9.216 0.682667 16.384 1.706666 24.234666-3.413333 12.288-18.432 19.456-32.426666 21.162667-46.762667 5.461333-117.76 8.192-162.816-8.192-12.288-30.72-22.528-68.266667-32.768-103.424-44.032 4.778667-79.530667-18.773333-112.981334-34.133333-11.605333-5.461333-27.989333-8.533333-32.085333-17.408-4.096-8.874667-2.389333-25.941333-3.413333-42.325334-2.730667-41.301333-5.12-81.237333-15.36-123.562666-4.778667-19.114667-13.312-35.84-19.456-53.930667-5.461333-17.066667-15.018667-37.888-17.749334-54.954667-3.754667-24.917333 19.797333-26.282667 34.816-37.205333 23.210667-16.725333 41.642667-25.941333 66.56-41.301333 7.509333-4.778667 30.037333-15.36 32.426667-21.162667 5.12-10.24-8.874667-24.917333-12.288-33.109333-5.802667-11.264-8.874667-23.893333-9.898667-36.522667-21.162667-3.413333-37.205333-16.042667-47.104-30.037333-16.042667-23.552-27.306667-66.901333-13.312-100.010667 1.024-2.730667 6.144-7.850667 7.168-11.605333 1.706667-7.850667-3.072-18.432-3.072-26.624-1.365333-43.008 7.168-80.213333 36.181334-93.184 11.946667-46.421333 53.930667-62.122667 93.525333-85.674667 14.677333-8.533333 31.061333-14.336 48.128-20.48 60.416-22.186667 153.258667-18.090667 203.776 19.797333 21.162667 16.042667 55.296 50.176 67.584 74.410667 32.085333 65.194667 30.037333 173.738667 7.509333 252.928-3.072 10.581333-7.509333 26.282667-13.653333 38.912-4.437333 8.874667-17.408 26.624-16.042667 34.474667 1.706667 8.192 30.378667 29.696 36.522667 35.84 10.922667 10.581333 32.085333 24.917333 33.792 38.229333 1.706667 14.336-6.144 33.792-10.581333 47.786667l-42.666667 129.706666" fill="#231F20" p-id="1215"></path><path d="M507.562667 381.952c1.706667-2.389333 11.264-6.144 24.917333 0.682667 0 0-16.042667 2.730667-14.677333 29.013333l-6.485334-1.365333c-0.341333 0.341333-7.168-23.893333-3.754666-28.330667" fill="#F7E4CD" p-id="1216"></path><path d="M623.616 610.304c0 4.096-3.413333 7.168-7.168 7.168s-7.168-3.413333-7.168-7.168 3.413333-7.168 7.168-7.168 7.168 3.072 7.168 7.168m7.509333 34.133333c0 4.096-3.413333 7.168-7.168 7.168-4.096 0-7.168-3.413333-7.168-7.168s3.413333-7.168 7.168-7.168c3.754667-0.341333 7.168 3.072 7.168 7.168" fill="#1D1919" p-id="1217"></path></svg>